<?xml version="1.0" encoding="utf-8"?>
<!-- Generator: Adobe Illustrator 24.1.1, SVG Export Plug-In . SVG Version: 6.00 Build 0)  -->
<svg version="1.1" id="Layer_1" xmlns="http://www.w3.org/2000/svg" xmlns:xlink="http://www.w3.org/1999/xlink" x="0px" y="0px"
	 viewBox="0 0 225.4 75.3" style="enable-background:new 0 0 225.4 75.3;" xml:space="preserve">
<style type="text/css">
	.st0{fill:#FFFFFF;}
	.st1{fill:#EE5586;}
</style>
<path class="st0" d="M225,66.8v5.7H0v-5.7H225z"/>
<g>
	<circle id="svg-ico" class="st1" cx="5.2" cy="69.6" r="4"/>
	
		<animateMotion  accumulate="none" additive="replace" begin="0s" calcMode="paced" dur="6s" fill="remove" path="M210,0 0 0 210,0" repeatCount="indefinite" restart="always">
		</animateMotion>
</g>
<g>
	<path class="st0" d="M0.6,60.8C10.4,43.9,21.2,26,31,9.1c1.6-2.8,3.3-5.6,5.4-9.1c9.3,16.3,18.3,32.1,27.8,48.8
		c-4.9-0.1-13.8-0.4-13.8-0.4s-9.8-16.3-14.1-23.6c-4.5,7.9-8.8,15.5-13.2,23.2c4.5-0.9,8.7-1.8,12.9-2.6c0.3,0.6,0.6,1.1,0.9,1.7
		c-1.4,1-14.5,9.9-20.5,13.8C11.9,60.8,3,60.8,0.6,60.8z"/>
	<path class="st0" d="M32.2,40.9c1.5-2.5,2.6-4.4,4-6.8c1.4,2.4,2.5,4.3,3.9,6.8C37.3,40.9,35.2,40.9,32.2,40.9z"/>
	<g>
		<path class="st0" d="M66.8,16.5h5.8v24.1c0,0.8,0.2,1.5,0.6,1.9c0.4,0.5,1,0.7,1.7,0.7c0.3,0,0.7-0.1,1.1-0.2
			c0.4-0.1,0.8-0.3,1.2-0.4l0.8,4.4c-0.8,0.4-1.7,0.7-2.7,0.9c-1,0.2-2,0.3-2.8,0.3c-1.8,0-3.2-0.5-4.2-1.4c-1-1-1.5-2.3-1.5-4.1
			V16.5z"/>
		<path class="st0" d="M90.9,48.3c-1.8,0-3.4-0.3-4.9-0.9c-1.5-0.6-2.7-1.5-3.7-2.5c-1-1.1-1.8-2.3-2.4-3.7
			c-0.6-1.4-0.8-2.9-0.8-4.4c0-1.6,0.3-3.1,0.8-4.5c0.5-1.4,1.3-2.7,2.4-3.7s2.3-1.9,3.8-2.6c1.5-0.6,3.1-0.9,5-0.9
			c1.8,0,3.5,0.3,4.9,0.9c1.4,0.6,2.7,1.5,3.7,2.5c1,1.1,1.8,2.3,2.3,3.7c0.5,1.4,0.8,2.9,0.8,4.4c0,0.4,0,0.7,0,1.1
			c0,0.3-0.1,0.6-0.1,0.9H85.2c0.1,0.9,0.3,1.7,0.6,2.4c0.3,0.7,0.8,1.3,1.3,1.8c0.5,0.5,1.2,0.9,1.8,1.1c0.7,0.3,1.4,0.4,2.1,0.4
			c1.1,0,2.2-0.3,3.2-0.8c1-0.6,1.7-1.3,2.1-2.2l4.9,1.4c-0.8,1.7-2.2,3.1-4,4.2C95.6,47.8,93.4,48.3,90.9,48.3z M96.8,34.7
			c-0.1-1.7-0.8-3-1.9-4.1c-1.1-1-2.4-1.5-4-1.5c-0.8,0-1.5,0.1-2.2,0.4c-0.7,0.3-1.3,0.7-1.8,1.1c-0.5,0.5-0.9,1.1-1.3,1.8
			c-0.3,0.7-0.5,1.4-0.6,2.3H96.8z"/>
		<path class="st0" d="M124.9,25.4c-0.2-0.2-0.6-0.5-1.1-0.8c-0.5-0.3-1.2-0.7-1.9-1c-0.8-0.3-1.6-0.6-2.5-0.8
			c-0.9-0.2-1.8-0.3-2.7-0.3c-1.6,0-2.8,0.3-3.7,0.9c-0.8,0.6-1.2,1.4-1.2,2.5c0,0.6,0.1,1.2,0.5,1.6c0.3,0.4,0.7,0.8,1.3,1.1
			c0.6,0.3,1.3,0.6,2.2,0.9c0.9,0.3,1.9,0.5,3,0.8c1.5,0.4,2.8,0.8,4.1,1.3c1.2,0.5,2.2,1,3.1,1.7c0.8,0.7,1.5,1.5,2,2.5
			c0.5,1,0.7,2.1,0.7,3.5c0,1.6-0.3,3-0.9,4.2c-0.6,1.2-1.4,2.1-2.5,2.8c-1,0.7-2.2,1.2-3.6,1.6c-1.4,0.3-2.8,0.5-4.3,0.5
			c-2.3,0-4.6-0.3-6.8-1c-2.2-0.7-4.2-1.7-6-2.9l2.6-5.1c0.3,0.3,0.7,0.6,1.4,1c0.7,0.4,1.5,0.8,2.4,1.2c0.9,0.4,1.9,0.8,3,1.1
			c1.1,0.3,2.3,0.4,3.4,0.4c3.3,0,4.9-1,4.9-3.1c0-0.7-0.2-1.2-0.6-1.7c-0.4-0.5-0.9-0.9-1.6-1.2c-0.7-0.3-1.5-0.7-2.5-0.9
			c-1-0.3-2.1-0.6-3.3-0.9c-1.5-0.4-2.7-0.8-3.8-1.3c-1.1-0.5-2-1-2.7-1.7c-0.7-0.6-1.3-1.4-1.6-2.2c-0.4-0.8-0.5-1.9-0.5-3
			c0-1.5,0.3-2.9,0.9-4.1c0.6-1.2,1.4-2.2,2.4-3c1-0.8,2.2-1.4,3.5-1.8c1.3-0.4,2.8-0.6,4.3-0.6c2.1,0,4.1,0.3,5.9,1
			c1.8,0.7,3.4,1.5,4.7,2.4L124.9,25.4z"/>
		<path class="st0" d="M142.9,48.3c-1.8,0-3.5-0.3-4.9-0.9c-1.5-0.6-2.7-1.5-3.7-2.6c-1-1.1-1.8-2.3-2.3-3.7
			c-0.5-1.4-0.8-2.9-0.8-4.4c0-1.6,0.3-3.1,0.8-4.5c0.5-1.4,1.3-2.6,2.3-3.7c1-1.1,2.3-1.9,3.7-2.6c1.5-0.6,3.1-0.9,4.9-0.9
			s3.5,0.3,4.9,0.9c1.4,0.6,2.7,1.5,3.7,2.6c1,1.1,1.8,2.3,2.3,3.7c0.5,1.4,0.8,2.9,0.8,4.5c0,1.5-0.3,3-0.8,4.4
			c-0.5,1.4-1.3,2.6-2.3,3.7c-1,1.1-2.2,1.9-3.7,2.6C146.4,48,144.8,48.3,142.9,48.3z M137.1,36.7c0,1,0.2,1.9,0.5,2.7
			c0.3,0.8,0.7,1.5,1.2,2.1c0.5,0.6,1.2,1.1,1.9,1.4c0.7,0.3,1.5,0.5,2.3,0.5s1.6-0.2,2.3-0.5c0.7-0.3,1.3-0.8,1.9-1.4
			c0.5-0.6,0.9-1.3,1.2-2.1c0.3-0.8,0.5-1.7,0.5-2.7c0-1-0.2-1.9-0.5-2.7c-0.3-0.8-0.7-1.5-1.2-2.1c-0.5-0.6-1.2-1.1-1.9-1.4
			c-0.7-0.3-1.5-0.5-2.3-0.5s-1.6,0.2-2.3,0.5c-0.7,0.3-1.3,0.8-1.9,1.4c-0.5,0.6-0.9,1.3-1.2,2.1C137.2,34.8,137.1,35.7,137.1,36.7
			z"/>
		<path class="st0" d="M157.2,36.6c0-1.6,0.3-3.1,0.8-4.5c0.5-1.4,1.3-2.6,2.4-3.7c1-1.1,2.3-1.9,3.7-2.5c1.5-0.6,3.1-0.9,4.9-0.9
			c2.5,0,4.6,0.5,6.3,1.6c1.7,1.1,3,2.4,3.9,4.2l-5.6,1.7c-0.5-0.8-1.1-1.5-1.9-1.9c-0.8-0.4-1.7-0.7-2.7-0.7
			c-0.8,0-1.6,0.2-2.3,0.5c-0.7,0.3-1.3,0.8-1.9,1.4c-0.5,0.6-0.9,1.3-1.2,2.1c-0.3,0.8-0.5,1.7-0.5,2.7c0,1,0.2,1.9,0.5,2.7
			c0.3,0.8,0.7,1.5,1.3,2.1c0.5,0.6,1.2,1.1,1.9,1.4c0.7,0.3,1.5,0.5,2.3,0.5c1,0,2-0.3,2.9-0.8s1.5-1.1,1.8-1.9l5.6,1.7
			c-0.8,1.7-2,3.1-3.8,4.2c-1.8,1.1-3.9,1.6-6.4,1.6c-1.8,0-3.5-0.3-4.9-0.9c-1.5-0.6-2.7-1.5-3.7-2.6c-1-1.1-1.8-2.3-2.4-3.7
			C157.4,39.7,157.2,38.2,157.2,36.6z"/>
		<path class="st0" d="M198.2,47.9l-6.5-9.8l-3.1,3.1v6.7h-5.8V16.5h5.8v19l9-10.1h6.1l-8.4,9.5l9,12.9H198.2z"/>
		<path class="st0" d="M215.3,48.3c-1.9,0-3.7-0.3-5.5-0.9s-3.4-1.5-4.6-2.6l2.1-3.6c1.4,1,2.7,1.7,4,2.2c1.3,0.5,2.6,0.8,3.9,0.8
			c1.1,0,2-0.2,2.7-0.6c0.7-0.4,1-1,1-1.8c0-0.8-0.4-1.4-1.2-1.8c-0.8-0.4-2-0.8-3.8-1.3c-1.5-0.4-2.7-0.8-3.7-1.2
			c-1-0.4-1.9-0.8-2.5-1.3c-0.6-0.5-1.1-1-1.4-1.6c-0.3-0.6-0.4-1.4-0.4-2.2c0-1.1,0.2-2.2,0.7-3.1c0.4-0.9,1.1-1.7,1.9-2.3
			c0.8-0.6,1.7-1.1,2.8-1.5c1.1-0.3,2.2-0.5,3.5-0.5c1.7,0,3.3,0.2,4.7,0.7c1.5,0.5,2.8,1.3,4.1,2.4l-2.3,3.5
			c-1.1-0.9-2.3-1.5-3.3-1.9c-1.1-0.4-2.1-0.6-3.2-0.6c-1,0-1.8,0.2-2.4,0.6c-0.7,0.4-1,1-1,1.9c0,0.4,0.1,0.7,0.2,1
			c0.2,0.3,0.4,0.5,0.8,0.7c0.3,0.2,0.8,0.4,1.4,0.6c0.6,0.2,1.3,0.4,2.1,0.6c1.5,0.4,2.9,0.8,4,1.2c1.1,0.4,2,0.9,2.7,1.4
			c0.7,0.5,1.2,1.1,1.5,1.8c0.3,0.7,0.5,1.5,0.5,2.4c0,2.2-0.8,3.9-2.4,5.2C220.3,47.7,218.1,48.3,215.3,48.3z"/>
	</g>
</g>
</svg>
